Coordinates
version=1
nRows=7
nColumns=40
inDegrees=yes

Units are S.I. units (second, meters, Newtons, ...)
If the header above contains a line with 'inDegrees', this indicates whether rotational values are in degrees (yes) or radians (no).

endheader
time	pelvis_tilt	pelvis_list	pelvis_rotation	pelvis_tx	pelvis_ty	pelvis_tz	hip_flexion_r	hip_adduction_r	hip_rotation_r	knee_angle_r	knee_angle_r_beta	ankle_angle_r	subtalar_angle_r	mtp_angle_r	hip_flexion_l	hip_adduction_l	hip_rotation_l	knee_angle_l	knee_angle_l_beta	ankle_angle_l	subtalar_angle_l	mtp_angle_l	lumbar_extension	lumbar_bending	lumbar_rotation	arm_flex_r	arm_add_r	arm_rot_r	elbow_flex_r	pro_sup_r	wrist_flex_r	wrist_dev_r	arm_flex_l	arm_add_l	arm_rot_l	elbow_flex_l	pro_sup_l	wrist_flex_l	wrist_dev_l
      0.75500000	    -17.54760244	      0.17576627	     -2.31788849	      0.17953563	      0.69062654	     -1.20436983	     67.74237359	    -37.27881907	    -10.89018629	     80.63932388	      1.40742171	     18.88171675	      0.06070893	      0.00000000	     66.03053551	    -45.07697502	    -16.81363597	     80.49435027	      1.40489144	     20.33290948	     15.42788485	      0.00000000	     -7.87833102	     -0.44859285	      0.30418802	     44.97532978	    -15.00010830	     44.97532978	     75.00020428	     45.00000025	      0.00000000	      0.00000000	     44.97532978	    -15.00010830	     44.97532978	     75.00020428	     45.00000025	      0.00000000	      0.00000000
      0.76000000	    -17.63593253	      0.09712852	     -2.34926639	      0.17951294	      0.68788518	     -1.20444099	     68.17316744	    -37.38537619	    -10.70600831	     81.18043377	      1.41686586	     19.30380142	      0.54593772	      0.00000000	     66.65574991	    -45.35020634	    -16.39420109	     81.04566391	      1.41451368	     20.42850156	     16.17908327	      0.00000000	     -7.89562130	     -0.41573962	      0.19049349	     44.97554369	    -15.00010679	     44.97554369	     75.00020356	     45.00000025	      0.00000000	      0.00000000	     44.97554369	    -15.00010679	     44.97554369	     75.00020356	     45.00000025	      0.00000000	      0.00000000
      0.76500000	    -17.79214146	      0.07542847	     -2.31078582	      0.17925634	      0.68509475	     -1.20466429	     68.70254926	    -37.53971361	    -10.42730760	     81.69632367	      1.42586983	     19.81425274	      1.07885480	      0.00000000	     67.37241697	    -45.42733384	    -15.92678393	     81.58080588	      1.42385367	     20.59021578	     16.13843340	      0.00000000	     -7.83420714	     -0.36030814	      0.07143113	     44.97578783	    -15.00010507	     44.97578783	     75.00020274	     45.00000025	      0.00000000	      0.00000000	     44.97578783	    -15.00010507	     44.97578783	     75.00020274	     45.00000025	      0.00000000	      0.00000000
      0.77000000	    -17.82811068	      0.04968049	     -2.28440529	      0.17917774	      0.68279618	     -1.20484059	     69.08663272	    -37.75920070	    -10.35036793	     82.16640712	      1.43407434	     19.88849100	      1.13165215	      0.00000000	     67.85026027	    -45.53701686	    -15.57586541	     82.02692947	      1.43163999	     20.67664893	     16.26983057	      0.00000000	     -7.94211067	     -0.35686677	     -0.01162973	     44.97601073	    -15.00010351	     44.97601073	     75.00020201	     45.00000025	      0.00000000	      0.00000000	     44.97601073	    -15.00010351	     44.97601073	     75.00020201	     45.00000025	      0.00000000	      0.00000000
      0.77500000	    -17.76114117	      0.06036340	     -2.20447493	      0.17899123	      0.68051885	     -1.20526726	     69.37762928	    -37.98291221	    -10.12129032	     82.59894425	      1.44162354	     19.95210472	      1.07530477	      0.00000000	     68.25672103	    -45.56190551	    -15.22961780	     82.56778023	      1.44107962	     20.86440029	     16.31295238	      0.00000000	     -8.15902640	     -0.35989014	     -0.07650199	     44.97621039	    -15.00010212	     44.97621039	     75.00020137	     45.00000025	      0.00000000	      0.00000000	     44.97621039	    -15.00010212	     44.97621039	     75.00020137	     45.00000025	      0.00000000	      0.00000000
      0.78000000	    -17.73625392	      0.05933450	     -2.18076874	      0.17879767	      0.67822263	     -1.20542195	     69.74516530	    -38.17727338	     -9.94999038	     83.06935381	      1.44983373	     20.07526124	      1.07462975	      0.00000000	     68.66761997	    -45.64513831	    -14.87353833	     83.01970173	      1.44896714	     21.04382379	     16.37580147	      0.00000000	     -8.39771203	     -0.31983035	     -0.16090818	     44.97640179	    -15.00010081	     44.97640179	     75.00020077	     45.00000025	      0.00000000	      0.00000000	     44.97640179	    -15.00010081	     44.97640179	     75.00020077	     45.00000025	      0.00000000	      0.00000000
      0.78500000	    -17.89582811	      0.02908505	     -2.14845667	      0.17872130	      0.67542849	     -1.20562026	     70.25310384	    -38.34313699	     -9.70503506	     83.58132606	      1.45876933	     20.57412340	      1.65681293	      0.00000000	     69.37032900	    -45.74883617	    -14.43978101	     83.54612081	      1.45815489	     21.14969267	     16.35113360	      0.00000000	     -8.28061175	     -0.31851530	     -0.25426114	     44.97662880	    -15.00009924	     44.97662880	     75.00020005	     45.00000025	      0.00000000	      0.00000000	     44.97662880	    -15.00009924	     44.97662880	     75.00020005	     45.00000025	      0.00000000	      0.00000000
